<?xml version="1.0" standalone="no"?>
<!DOCTYPE svg PUBLIC "-//W3C//DTD SVG 20010904//EN"
 "http://www.w3.org/TR/2001/REC-SVG-20010904/DTD/svg10.dtd">
<svg version="1.0" xmlns="http://www.w3.org/2000/svg"
 width="512.000000pt" height="512.000000pt" viewBox="0 0 512.000000 512.000000"
 preserveAspectRatio="xMidYMid meet">

<g transform="translate(0.000000,512.000000) scale(0.100000,-0.100000)"
fill="#000000" stroke="none">
<path d="M1205 4868 c-75 -26 -139 -98 -158 -177 l-12 -51 -134 0 c-76 0 -152
-5 -175 -12 -55 -16 -138 -99 -154 -154 -18 -60 -18 -4008 0 -4068 16 -55 99
-138 154 -154 32 -9 387 -12 1516 -12 1666 0 1533 -7 1611 80 54 60 67 103 67
224 l0 96 48 0 c39 0 99 21 303 106 140 58 262 114 272 126 9 11 17 33 17 48
0 15 -8 37 -17 48 -10 12 -132 68 -272 126 -204 85 -264 106 -303 106 l-48 0
0 1616 c0 1220 -3 1626 -12 1656 -6 22 -31 62 -55 88 -61 68 -102 80 -275 80
-121 0 -138 2 -138 16 0 76 -80 182 -157 208 -97 33 -175 15 -248 -59 -47 -47
-75 -102 -75 -149 0 -13 -13 -16 -80 -16 -67 0 -80 3 -80 16 0 76 -80 182
-157 208 -97 33 -175 15 -248 -59 -47 -47 -75 -102 -75 -149 0 -13 -13 -16
-80 -16 -67 0 -80 3 -80 16 0 76 -80 182 -157 208 -97 33 -175 15 -248 -59
-47 -47 -75 -102 -75 -149 0 -13 -13 -16 -80 -16 -67 0 -80 3 -80 16 0 76 -80
182 -157 208 -52 18 -113 20 -158 4z m130 -173 c24 -23 25 -31 25 -135 0 -104
-1 -112 -25 -135 -15 -16 -36 -25 -55 -25 -19 0 -40 9 -55 25 -24 23 -25 31
-25 135 0 104 1 112 25 135 15 16 36 25 55 25 19 0 40 -9 55 -25z m640 0 c24
-23 25 -31 25 -135 0 -104 -1 -112 -25 -135 -15 -16 -36 -25 -55 -25 -19 0
-40 9 -55 25 -24 23 -25 31 -25 135 0 104 1 112 25 135 15 16 36 25 55 25 19
0 40 -9 55 -25z m640 0 c24 -23 25 -31 25 -135 0 -104 -1 -112 -25 -135 -15
-16 -36 -25 -55 -25 -19 0 -40 9 -55 25 -24 23 -25 31 -25 135 0 104 1 112 25
135 15 16 36 25 55 25 19 0 40 -9 55 -25z m640 0 c24 -23 25 -31 25 -135 0
-104 -1 -112 -25 -135 -15 -16 -36 -25 -55 -25 -19 0 -40 9 -55 25 -24 23 -25
31 -25 135 0 104 1 112 25 135 15 16 36 25 55 25 19 0 40 -9 55 -25z m-2215
-231 c0 -47 28 -102 75 -149 73 -74 151 -92 248 -59 77 26 157 132 157 208 0
13 13 16 80 16 67 0 80 -3 80 -16 0 -47 28 -102 75 -149 73 -74 151 -92 248
-59 77 26 157 132 157 208 0 13 13 16 80 16 67 0 80 -3 80 -16 0 -47 28 -102
75 -149 73 -74 151 -92 248 -59 77 26 157 132 157 208 0 13 13 16 80 16 67 0
80 -3 80 -16 0 -47 28 -102 75 -149 73 -74 151 -92 248 -59 77 26 157 132 157
208 0 14 17 16 135 16 131 0 137 -1 160 -25 l25 -24 0 -256 0 -255 -1520 0
-1520 0 0 255 0 256 25 24 c23 24 29 25 160 25 118 0 135 -2 135 -16z m2720
-1984 l0 -1280 -918 0 c-1053 0 -988 5 -1078 -84 -113 -114 -113 -278 0 -392
90 -89 25 -84 1078 -84 l918 0 0 -95 c0 -88 -2 -98 -25 -120 l-24 -25 -1471 0
-1471 0 -24 25 -25 24 0 1656 0 1655 1520 0 1520 0 0 -1280z m-1600 -1561 l0
-121 -125 4 -125 3 -32 33 c-28 28 -33 39 -33 81 0 39 5 55 25 76 36 40 53 44
178 44 l112 1 0 -121z m1760 1 l0 -120 -800 0 -800 0 0 120 0 120 800 0 800 0
0 -120z m288 28 c28 -12 52 -24 52 -28 0 -4 -24 -16 -52 -28 -29 -11 -70 -27
-90 -36 l-38 -16 0 80 0 80 38 -16 c20 -9 61 -25 90 -36z"/>
<path d="M2425 3204 c-317 -56 -708 -295 -896 -550 -54 -73 -106 -185 -119
-256 -20 -107 16 -221 95 -302 82 -85 174 -111 214 -60 39 49 20 99 -49 134
-48 24 -85 72 -100 128 -45 171 224 471 575 642 400 195 710 140 750 -131 13
-87 -25 -218 -96 -330 -65 -104 -146 -278 -170 -364 -31 -112 -31 -242 0 -310
51 -115 144 -160 281 -135 78 14 177 56 190 81 16 30 11 78 -10 99 -29 29 -60
30 -130 0 -25 -10 -66 -21 -92 -25 -41 -6 -50 -4 -72 18 -72 72 -21 290 122
522 112 180 154 330 133 472 -42 280 -291 426 -626 367z"/>
</g>
</svg>
